HIERARCHY
ROOT Bip001_Pelvis
{
  OFFSET 34.4345 95.6767 -26.8758
  CHANNELS 6 Xposition Yposition Zposition Zrotation Xrotation Yrotation
  JOINT Bip001_Spine
  {
    OFFSET 1.4188e-005 10.2191 -0.0116013
    CHANNELS 3 Zrotation Xrotation Yrotation
    JOINT Bip001_L_Thigh
    {
      OFFSET 11.0458 -10.2192 0.0116197
      CHANNELS 3 Zrotation Xrotation Yrotation
      JOINT Bip001_L_Calf
      {
        OFFSET -0.707118 -44.0221 0.360014
        CHANNELS 3 Zrotation Xrotation Yrotation
        JOINT Bip001_L_Foot
        {
          OFFSET -0.651902 -40.5938 -3.56146
          CHANNELS 3 Zrotation Xrotation Yrotation
          JOINT Bip001_L_Toe0
          {
            OFFSET 0.0530839 -10.2181 13.1504
            CHANNELS 3 Zrotation Xrotation Yrotation
            End Site
            {
              OFFSET -1.02532e-005 0 7.55606
            }
          }
        }
      }
    }
    JOINT Bip001_R_Thigh
    {
      OFFSET -11.0458 -10.2191 0.0115893
      CHANNELS 3 Zrotation Xrotation Yrotation
      JOINT Bip001_R_Calf
      {
        OFFSET 0.706994 -44.0221 0.35984
        CHANNELS 3 Zrotation Xrotation Yrotation
        JOINT Bip001_R_Foot
        {
          OFFSET 0.651786 -40.5938 -3.5613
          CHANNELS 3 Zrotation Xrotation Yrotation
          JOINT Bip001_R_Toe0
          {
            OFFSET -0.0531479 -10.2181 13.1504
            CHANNELS 3 Zrotation Xrotation Yrotation
            End Site
            {
              OFFSET -1.02894e-005 0 7.55606
            }
          }
        }
      }
    }
    JOINT Bip001_Spine1
    {
      OFFSET 1.87041e-005 14.5736 1.08638
      CHANNELS 3 Zrotation Xrotation Yrotation
      JOINT Bip001_Spine2
      {
        OFFSET 2.24614e-005 14.5058 -1.69078
        CHANNELS 3 Zrotation Xrotation Yrotation
        JOINT Bip001_Neck
        {
          OFFSET 2.20278e-005 15.3945 -0.489414
          CHANNELS 3 Zrotation Xrotation Yrotation
          JOINT Bip001_L_Clavicle
          {
            OFFSET 6.06036 -0.000579998 0.00836775
            CHANNELS 3 Zrotation Xrotation Yrotation
            JOINT Bip001_L_UpperArm
            {
              OFFSET 11.5509 -0.0600302 0.00193952
              CHANNELS 3 Zrotation Xrotation Yrotation
              JOINT Bip001_L_Forearm
              {
                OFFSET 25.9523 0.0806089 -2.15551
                CHANNELS 3 Zrotation Xrotation Yrotation
                JOINT Bip001_L_Hand
                {
                  OFFSET 32.2475 0.153767 1.63968
                  CHANNELS 3 Zrotation Xrotation Yrotation
                  JOINT Bip001_L_Finger0
                  {
                    OFFSET 6.04639 -2.20976 5.90322
                    CHANNELS 3 Zrotation Xrotation Yrotation
                    End Site
                    {
                      OFFSET 4.22375 -1.43895 0.606485
                    }
                  }
                  JOINT Bip001_L_Finger1
                  {
                    OFFSET 11.0826 -0.704819 -0.198153
                    CHANNELS 3 Zrotation Xrotation Yrotation
                    End Site
                    {
                      OFFSET 6.20027 -0.397518 -0.0787166
                    }
                  }
                }
              }
            }
          }
          JOINT Bip001_R_Clavicle
          {
            OFFSET -6.06037 -0.000563197 0.00835105
            CHANNELS 3 Zrotation Xrotation Yrotation
            JOINT Bip001_R_UpperArm
            {
              OFFSET -11.5509 -0.0599978 0.00190698
              CHANNELS 3 Zrotation Xrotation Yrotation
              JOINT Bip001_R_Forearm
              {
                OFFSET -25.9523 0.0806822 -2.15589
                CHANNELS 3 Zrotation Xrotation Yrotation
                JOINT Bip001_R_Hand
                {
                  OFFSET -32.2475 0.153859 1.63989
                  CHANNELS 3 Zrotation Xrotation Yrotation
                  JOINT Bip001_R_Finger0
                  {
                    OFFSET -6.04641 -2.20976 5.90317
                    CHANNELS 3 Zrotation Xrotation Yrotation
                    End Site
                    {
                      OFFSET -4.22376 -1.43895 0.60647
                    }
                  }
                  JOINT Bip001_R_Finger1
                  {
                    OFFSET -11.0826 -0.704794 -0.198182
                    CHANNELS 3 Zrotation Xrotation Yrotation
                    End Site
                    {
                      OFFSET -6.20028 -0.397504 -0.0787333
                    }
                  }
                }
              }
            }
          }
          JOINT Bip001_Head
          {
            OFFSET 1.09673e-005 11.2744 2.05948
            CHANNELS 3 Zrotation Xrotation Yrotation
            End Site
            {
              OFFSET 2.89576e-005 20.8808 -2.77728e-005
            }
          }
        }
      }
    }
  }
}
MOTION
Frames:	6
Frame Time:	0.04
33.8292 95.9032 -28.8437 0.590639 -0.561113 3.46556 -0.302394 2.04392 -0.0933079 4.5114 -3.58275 11.2669 0.224648 8.06564 -13.3024 2.85014 -4.31502 -0.021572 0.735312 -4.0056 -0.292352 -3.76301 -2.68528 -3.32885 -0.174871 10.5242 0.212418 -5.50138 -9.34475 2.10915 2.29441 -7.72297 2.34764 -0.602034 4.0883 -0.174916 -0.60199 4.08831 -0.175451 0.829386 -7.68568 -2.85776 -24.198 8.08397 1.6411 -54.6945 39.7576 3.17101 17.7263 1.60806 -22.5628 9.63583 2.8503 -3.71408 -6.36111e-015 -6.36111e-015 4.77083e-015 -6.36111e-015 -6.36111e-015 4.77083e-015 16.0874 16.0331 29.1566 76.4964 -54.9059 43.3363 -39.852 -7.54626 116.694 -34.1572 9.22065 2.50042 4.41391e-032 3.18055e-015 -7.95139e-016 7.95139e-016 0 -1.78906e-015 -0.889137 -6.27631 -2.43582 
33.8405 95.9073 -28.7929 0.633403 -0.47001 3.82095 -0.305168 1.99144 -0.102878 4.44532 -3.61424 11.1353 0.269497 7.9779 -13.4799 2.68837 -4.32853 -0.0225652 0.693205 -3.91999 -0.264393 -3.78971 -2.59349 -3.39693 -0.152087 10.4585 0.193037 -5.59743 -9.31238 1.84842 2.30377 -7.77372 2.35589 -0.606276 3.98338 -0.19398 -0.606715 3.98338 -0.194682 0.556361 -7.62795 -2.94144 -24.2543 7.93031 1.98883 -54.6693 40.2457 3.33263 17.7272 1.23428 -22.7114 9.91444 3.00478 -3.79284 2.64834e-031 -9.54166e-015 1.59028e-015 3.18055e-015 -3.18056e-015 -0 14.5599 16.0048 31.7192 75.4747 -50.8622 47.5488 -41.76 -8.87863 115.865 -34.7681 10.1992 2.06705 1.68967e-015 3.18055e-015 2.33572e-015 4.96962e-016 0 3.97569e-016 -0.676128 -6.114 -2.61554 
33.6357 95.9455 -28.7352 0.236544 -0.187968 3.91516 -0.260799 1.91645 -0.054703 5.19178 -3.91298 9.79368 -0.377791 8.2106 -12.0163 2.36965 -4.60093 -0.00960869 0.652103 -3.66528 -0.276005 -3.14683 -2.49035 -2.29119 -0.175604 9.78322 0.15021 -5.90162 -8.75223 0.744645 2.31327 -7.79021 2.35588 -0.517426 3.83311 -0.105399 -0.51895 3.8331 -0.103265 0.380802 -7.68557 -3.04146 -24.1669 7.87259 2.38167 -54.8361 40.5116 3.48187 17.8664 0.942783 -23.012 9.89705 3.10271 -3.63895 3.18055e-015 3.18055e-015 -0 -0 -3.18056e-015 -0 13.0359 15.9876 34.0195 73.2651 -46.0892 50.0322 -43.8473 -9.70654 114.373 -35.5021 11.1721 1.22936 7.95139e-016 6.36111e-015 9.93923e-016 -1.59028e-015 9.54167e-015 -7.95139e-016 -0.493836 -5.91816 -2.78288 
33.4336 95.9399 -28.6641 -0.222836 -0.00849247 4.27206 -0.18137 1.86943 -0.0715109 5.82344 -4.42233 9.89997 -0.507467 8.89343 -12.4303 2.5515 -4.83659 0.000938551 0.699657 -3.77223 -0.299814 -2.53352 -2.27861 -1.70476 -0.157397 9.16695 0.10202 -6.17223 -8.33618 -0.0812103 2.31957 -7.80272 2.35563 -0.361538 3.73907 -0.136475 -0.361101 3.73907 -0.136793 0.185168 -7.81095 -3.08707 -23.9814 7.89621 2.76937 -55.2879 40.6531 3.78696 18.0223 0.530657 -23.4567 9.77591 3.12213 -3.34496 6.36111e-015 3.18055e-015 -0 3.18055e-015 6.36111e-015 -0 11.5974 15.9177 35.9723 70.6595 -40.9947 51.7377 -44.4633 -9.49254 112.276 -35.2005 11.1035 1.11199 -0 -3.18055e-015 -0 7.95139e-016 0 7.95139e-016 -0.283719 -5.72036 -2.90683 
33.4546 95.9353 -28.6489 -0.189354 0.293578 4.47187 -0.19263 1.82812 -0.0284183 5.69642 -4.7208 9.6897 -0.378084 8.88841 -12.4497 2.46867 -4.85933 0.00164434 0.68399 -3.7147 -0.282206 -2.64023 -2.57855 -1.08834 0.107696 9.32833 -0.0946569 -6.39368 -8.32285 -0.738637 2.32172 -7.82098 2.34643 -0.384649 3.65633 -0.0507063 -0.384648 3.65633 -0.050708 0.0826728 -8.00087 -3.22954 -23.8134 7.96998 3.15012 -55.6955 41.1879 3.72182 18.1632 0.295808 -23.5925 9.58834 3.07316 -3.43375 7.06225e-031 -6.36111e-015 6.36111e-015 3.53113e-031 -6.36111e-015 3.18055e-015 10.0762 15.8238 37.6812 68.1558 -36.0027 53.2941 -45.3317 -8.59977 109.661 -34.9467 10.3226 1.17867 -0 0 7.95139e-016 -1.19271e-015 0 3.97569e-016 -0.197384 -5.74823 -3.08285 
33.5837 95.9222 -28.5075 0.286803 0.0793722 4.93479 -0.279478 1.90542 -0.0151118 5.03891 -4.30052 10.2003 0.0700605 8.3323 -13.5933 1.92334 -4.72162 0.00213455 0.507266 -3.59667 -0.0792755 -3.19068 -2.47698 -1.91014 0.213193 9.89608 -0.149288 -6.31159 -8.7915 -0.446326 2.32674 -7.82812 2.36651 -0.560577 3.81091 -0.0126909 -0.559491 3.81091 -0.0185892 0.333012 -8.07824 -3.50184 -24.0765 7.9442 3.31609 -55.7923 41.751 3.47267 18.1181 0.232612 -23.548 9.52481 3.0175 -3.43387 1.76556e-031 -3.18055e-015 3.18055e-015 3.18055e-015 -6.36111e-015 3.18055e-015 8.58255 15.7101 39.3713 65.0585 -31.4797 54.8372 -46.6862 -6.70152 105.974 -34.7782 11.0208 0.855111 -9.93129e-032 -9.54166e-015 -5.96354e-016 -7.95139e-016 -1.27222e-014 -1.39149e-015 -0.405892 -5.89823 -3.25461 
